<?xml version="1.0" standalone="no"?>
<!DOCTYPE svg PUBLIC "-//W3C//DTD SVG 20010904//EN"
 "http://www.w3.org/TR/2001/REC-SVG-20010904/DTD/svg10.dtd">
<svg version="1.0" xmlns="http://www.w3.org/2000/svg"
 width="426.000000pt" height="426.000000pt" viewBox="0 0 426.000000 426.000000"
 preserveAspectRatio="xMidYMid meet">
<metadata>
Created by potrace 1.14, written by Peter Selinger 2001-2017
</metadata>
<g transform="translate(0.000000,426.000000) scale(0.100000,-0.100000)"
fill="#000000" stroke="none">
<path d="M0 2130 l0 -2130 353 0 352 0 105 34 c57 19 108 32 112 30 5 -3 8
-18 8 -35 0 -16 4 -29 10 -29 11 0 19 45 23 130 l2 65 53 19 c31 11 57 15 62
10 5 -5 16 -45 25 -89 18 -90 33 -135 46 -135 11 0 12 -4 -7 82 -21 101 -51
278 -47 282 2 2 47 -21 101 -50 154 -86 301 -147 552 -234 78 -27 107 -41 115
-58 11 -25 25 -29 25 -7 0 11 7 14 23 10 92 -21 121 -25 187 -25 75 0 175 16
280 45 75 20 80 20 80 -15 0 -20 5 -30 15 -30 10 0 15 10 15 34 0 33 0 34 92
65 51 17 109 38 128 45 259 102 329 131 350 146 24 17 109 60 118 60 5 0 -5
-202 -14 -293 -4 -34 -3 -57 3 -57 6 0 13 44 16 97 4 53 10 100 14 104 14 14
89 -28 114 -62 18 -26 24 -47 24 -86 l0 -53 463 0 462 0 0 1803 -1 1802 -25
18 c-25 18 -25 18 -35 -13 -6 -17 -16 -29 -22 -27 -6 2 -28 37 -50 78 -21 41
-42 73 -46 72 -3 -2 -8 -28 -11 -58 -3 -30 -9 -56 -15 -58 -10 -2 -12 6 -45
228 -12 77 -28 162 -37 188 -21 68 -13 73 87 57 125 -19 130 -27 161 -230 34
-231 37 -224 37 98 l1 302 -542 0 -543 0 12 -122 c14 -135 10 -198 -12 -198
-24 0 -33 40 -40 183 l-6 137 -234 0 -234 0 0 -27 c1 -16 5 -59 10 -98 10 -77
-3 -153 -27 -162 -25 -10 -32 9 -43 122 -13 133 -19 165 -31 165 -6 0 -7 -54
-3 -143 5 -106 4 -149 -6 -166 -22 -43 -33 -5 -41 151 -4 84 -8 154 -8 156 -1
1 -566 2 -1256 2 l-1255 0 0 -2130z m3270 2105 c5 3 20 -1 32 -9 30 -21 60
-20 91 4 51 40 53 35 69 -192 12 -163 8 -217 -17 -225 -5 -1 -20 15 -33 37
-13 23 -30 40 -40 40 -10 0 -28 8 -42 17 -13 9 -25 13 -27 7 -8 -21 -22 -38
-28 -32 -8 8 -40 188 -50 280 -8 73 -2 96 20 78 8 -7 19 -9 25 -5z m404 -94
c17 -50 27 -333 13 -347 -13 -13 -25 16 -38 91 -6 38 -22 125 -35 193 -13 68
-24 125 -24 127 0 2 8 5 18 8 26 5 49 -20 66 -72z m70 27 c11 -17 20 -50 22
-72 1 -23 14 -104 27 -181 14 -77 23 -144 20 -148 -3 -4 -11 -3 -18 3 -12 10
-24 50 -38 130 -4 22 -27 114 -58 237 -18 67 12 88 45 31z m178 -111 c20 -40
29 -84 41 -192 9 -77 12 -144 8 -148 -15 -16 -31 22 -51 122 -12 57 -32 144
-45 194 -13 49 -22 94 -19 99 9 15 39 -18 66 -75z m-2382 -567 c11 -83 36
-228 46 -262 4 -14 -1 -18 -24 -18 -18 0 -32 6 -36 16 -3 9 -5 113 -4 232 1
119 3 195 5 167 1 -27 7 -88 13 -135z m1170 -34 c1 -109 -2 -202 -7 -207 -4
-4 -14 -5 -21 0 -11 6 -11 23 -3 84 6 42 14 132 17 201 4 70 9 125 10 123 2
-2 4 -92 4 -201z m-1530 104 c0 -14 11 -76 24 -137 21 -101 22 -113 7 -113
-35 0 -39 14 -43 157 -2 78 0 136 4 130 4 -7 8 -23 8 -37z m-465 -310 c44
-170 80 -294 107 -362 24 -63 34 -79 55 -84 25 -7 357 86 376 105 6 6 1 32
-13 68 -22 60 -71 265 -64 272 8 9 62 -22 73 -42 6 -12 31 -79 55 -148 65
-185 67 -189 129 -189 41 0 43 4 26 65 -23 79 -46 216 -36 212 5 -1 23 -40 40
-86 29 -81 94 -170 114 -158 5 3 -4 57 -19 119 -15 62 -28 117 -28 121 0 5 17
7 37 5 42 -3 33 12 93 -173 38 -117 53 -145 80 -145 24 0 24 -1 5 120 -8 52
-14 106 -14 120 1 26 5 14 51 -130 34 -108 36 -110 126 -110 42 0 136 5 207
11 72 5 182 11 245 14 121 4 118 3 157 61 11 16 12 14 7 -18 -4 -22 -2 -38 4
-38 28 0 88 135 113 253 15 68 25 87 49 87 19 0 24 -13 22 -50 0 -8 -2 -73 -3
-145 l-2 -130 29 -3 c16 -1 60 -10 97 -18 40 -10 72 -13 77 -8 13 13 36 111
55 234 23 147 24 150 37 150 11 0 6 -194 -8 -301 -6 -45 -6 -47 26 -58 52 -18
77 -14 83 12 3 12 11 67 19 122 16 120 23 73 10 -60 -8 -72 -7 -92 4 -101 19
-15 216 -48 294 -48 l65 -1 17 80 c9 44 23 121 30 172 7 51 14 90 17 87 6 -6
2 -263 -5 -301 -3 -15 -11 -31 -17 -35 -8 -6 -5 -14 13 -28 29 -23 59 -34 67
-26 3 3 14 43 23 88 17 76 18 79 19 37 1 -25 -6 -68 -14 -95 -8 -27 -15 -50
-15 -50 0 -1 12 -4 28 -7 15 -3 55 -26 90 -52 l62 -45 0 -98 c0 -54 -3 -101
-6 -105 -4 -3 -28 21 -53 54 -26 33 -76 80 -111 105 -58 40 -61 44 -35 44 58
0 8 21 -101 42 -148 29 -577 32 -752 5 -62 -9 -117 -17 -122 -17 -6 0 -10 -4
-10 -8 0 -8 121 2 147 12 35 14 14 -18 -58 -89 -43 -44 -79 -83 -79 -87 0 -8
37 4 148 50 34 14 64 23 67 20 3 -3 -2 -22 -12 -44 -21 -47 -23 -187 -4 -254
18 -65 110 -153 182 -174 55 -17 124 -19 197 -8 35 6 55 19 114 77 39 39 79
88 89 110 23 50 25 200 4 260 -8 22 -15 41 -15 43 0 8 52 -1 85 -17 48 -22
131 -110 140 -150 5 -26 -3 -78 -20 -126 -4 -11 16 4 45 33 64 64 86 79 125
84 l30 3 -3 -480 c-1 -264 -6 -603 -10 -752 l-7 -273 -80 -81 c-93 -94 -264
-246 -350 -310 -219 -165 -594 -328 -975 -424 -232 -58 -327 -62 -475 -15 -78
24 -343 120 -420 152 -97 40 -350 170 -375 193 -14 12 -35 26 -48 30 -46 14
-260 185 -369 296 -116 118 -202 229 -259 334 l-33 61 -4 429 c-2 237 -2 537
1 669 l4 238 47 50 c25 28 70 64 99 80 28 16 52 35 52 41 -1 7 -7 41 -15 77
-20 91 -18 93 19 20 38 -76 56 -83 104 -41 l33 29 -15 52 c-20 68 -34 219 -40
445 -3 126 -1 168 5 140 5 -22 16 -65 24 -95z m2297 100 c3 -17 1 -33 -4 -36
-4 -3 -8 11 -8 30 0 44 6 47 12 6z m-481 -397 c-12 -20 -14 -14 -5 12 4 9 9
14 11 11 3 -2 0 -13 -6 -23z m644 -476 c1 -1 6 -15 13 -30 33 -77 -4 -157 -73
-157 -32 0 -52 16 -74 57 -25 49 55 151 108 138 14 -4 26 -7 26 -8z m-95 -307
c0 -5 -7 -7 -15 -4 -8 4 -12 10 -9 15 6 11 24 2 24 -11z m73 13 c-7 -2 -21 -2
-30 0 -10 3 -4 5 12 5 17 0 24 -2 18 -5z m63 -46 c3 -11 1 -24 -5 -30 -8 -8
-11 -4 -11 15 0 14 -7 28 -15 32 -8 3 -15 10 -15 16 0 16 39 -12 46 -33z
m-170 0 c13 17 14 16 10 -7 -3 -25 -31 -39 -46 -23 -4 4 -3 19 3 33 l10 25 5
-23 c3 -22 4 -23 18 -5z m134 -18 c-10 -17 -14 -18 -28 -7 -27 20 -28 22 -9
15 9 -4 17 -2 17 3 0 6 7 10 15 10 13 0 14 -4 5 -21z m-76 -11 c-14 -6 -11 -7
14 -5 17 2 32 0 32 -5 0 -5 -21 -8 -46 -7 -38 2 -43 5 -30 14 9 7 13 15 10 18
-3 3 4 3 17 0 22 -6 22 -7 3 -15z"/>
<path d="M2919 2759 c-98 -6 -256 -35 -245 -46 2 -3 49 2 103 11 159 24 261
29 381 17 94 -10 256 -34 291 -44 5 -1 11 2 13 7 5 15 -170 46 -307 54 -71 4
-178 4 -236 1z"/>
<path d="M1220 2724 c-214 -17 -306 -27 -315 -36 -7 -6 19 -7 75 -1 47 4 195
8 330 7 196 0 254 -3 293 -16 50 -17 67 -8 20 10 -61 23 -295 44 -403 36z"/>
<path d="M1055 2645 c-179 -18 -347 -45 -360 -58 -7 -6 6 -8 39 -3 l49 6 -109
-106 -109 -106 24 -17 c33 -22 144 -130 164 -160 21 -31 34 -21 13 11 -8 12
-24 47 -36 77 l-21 54 27 38 c43 62 171 155 189 137 3 -3 -5 -27 -17 -54 -15
-34 -22 -70 -22 -119 -1 -60 4 -80 32 -137 35 -71 97 -135 167 -170 59 -31
193 -22 272 18 99 51 175 143 189 232 7 44 -10 139 -34 189 -9 18 -13 35 -10
38 3 3 34 -10 69 -29 68 -36 145 -63 155 -53 5 5 -74 84 -151 150 -16 14 -27
28 -23 32 4 4 40 0 80 -8 78 -16 99 -14 52 3 -110 42 -398 58 -629 35z m234
-220 c49 -83 33 -156 -39 -175 -42 -11 -63 -5 -94 26 -23 23 -21 95 4 127 11
14 20 30 20 35 0 6 10 13 23 15 54 10 65 7 86 -28z m-13 -301 c-4 -12 0 -15
17 -12 13 1 31 -5 40 -14 15 -15 15 -17 -1 -24 -9 -4 -25 -6 -35 -5 -10 1 -24
-2 -30 -8 -8 -6 -37 -7 -81 -1 -73 9 -102 24 -76 40 21 14 30 12 30 -5 0 -10
10 -15 31 -15 18 0 28 4 24 10 -11 18 23 22 47 6 12 -9 38 -16 58 -15 l35 1
-45 15 c-80 26 -77 24 -55 33 33 14 48 12 41 -6z"/>
<path d="M3490 2126 c0 -9 7 -16 16 -16 17 0 14 22 -4 28 -7 2 -12 -3 -12 -12z"/>
<path d="M845 2090 c-3 -5 1 -10 9 -10 9 0 16 5 16 10 0 6 -4 10 -9 10 -6 0
-13 -4 -16 -10z"/>
<path d="M3392 2074 c1 -9 9 -19 16 -22 9 -3 13 2 10 14 -1 9 -9 19 -16 22 -9
3 -13 -2 -10 -14z"/>
<path d="M938 2029 c-13 -13 -14 -19 -5 -19 14 0 37 20 37 32 0 13 -14 8 -32
-13z"/>
<path d="M2570 1164 l-32 -66 -57 7 c-127 15 -262 2 -396 -37 -77 -22 -220
-86 -212 -94 3 -3 27 6 54 19 137 70 361 114 516 102 93 -8 104 -14 89 -56 -5
-14 -4 -42 3 -67 13 -51 24 -47 16 6 -10 58 15 162 51 214 20 29 22 38 9 38
-6 0 -24 -30 -41 -66z"/>
</g>
</svg>
